# xmcd
#
# Track frame offsets:
# 150
# 12045
# 23479
# 35144
# 54795
# 68668
# 79607
# 95152
# 97908
# 105617
# 119357
# 132166
# 140328
# 156128
# 175622
# 193164
# 211963
#
# Disc length: 3280 seconds
#
#
# Revision: 0
# Processed by: cddbd v1.5.1PL2 Copyright (c) Steve Scherf et al.
# Submitted via: FreeRIP 2.944 
#
DISCID=d50cce11
DTITLE=Chicken Express - Cheerio My Gal
DYEAR=1999
DGENRE=Country
TTITLE0=Jambalaya
TTITLE1=Daddy Sang Bass
TTITLE2=Good Morning Sunshine
TTITLE3=Autobahn Bei Nacht
TTITLE4=Roll In My Sweet Baby's Arms
TTITLE5=Love For The World
TTITLE6=Ring Of Fire
TTITLE7=Cheerio My Gal
TTITLE8=Six Pack To Go
TTITLE9=Country Boy
TTITLE10=Lay Down Saly
TTITLE11=Folsom Prison Blues
TTITLE12=Country Roads
TTITLE13=Teach Your Children
TTITLE14=Orange Blossom Special
TTITLE15=Duelling Banjos
TTITLE16=Knockin On Heavens Door
EXTD=unplugged country music
EXTT0=
EXTT1=
EXTT2=
EXTT3=
EXTT4=
EXTT5=
EXTT6=
EXTT7=
EXTT8=
EXTT9=
EXTT10=
EXTT11=
EXTT12=
EXTT13=
EXTT14=
EXTT15=
EXTT16=
PLAYORDER=
